<?xml version="1.0" encoding="utf-8"?>
<svg width="800px" height="800px" viewBox="0 0 48 48" xmlns="http://www.w3.org/2000/svg">
  <title>menu-hamburger</title>

  <g id="Layer_2">
    <rect width="48" height="48" fill="none"/>
  </g>

  <g id="icons_Q2">
    <path fill="#ffffff" d="M42,12a2,2,0,0,1-2,2H8a2,2,0,0,1-2-2H6a2,2,0,0,1,2-2H40a2,2,0,0,1,2,2Z"/>
    <path fill="#ffffff" d="M42,24a2,2,0,0,1-2,2H8a2,2,0,0,1-2-2H6a2,2,0,0,1,2-2H40a2,2,0,0,1,2,2Z"/>
    <path fill="#ffffff" d="M42,36a2,2,0,0,1-2,2H8a2,2,0,0,1-2-2H6a2,2,0,0,1,2-2H40a2,2,0,0,1,2,2Z"/>
  </g>

</svg>
