<svg class="svg-icon" style="width: 1em; height: 1em;vertical-align: middle;fill: #FFFFFF;overflow: hidden;" viewBox="0 0 1024 1024" version="1.1" xmlns="http://www.w3.org/2000/svg"><path d="M590.769231 846.769231c0 19.692308 17.723077 39.384615 39.384615 39.384615h78.769231c21.661538 0 39.384615-21.661538 39.384615-39.384615V177.230769c0-19.692308-17.723077-39.384615-39.384615-39.384615h-78.769231c-21.661538 0-39.384615 21.661538-39.384615 39.384615v669.538462z m-315.076923 0c0 19.692308 17.723077 39.384615 39.384615 39.384615h78.769231c21.661538 0 39.384615-21.661538 39.384615-39.384615V177.230769c0-19.692308-17.723077-39.384615-39.384615-39.384615h-78.769231c-21.661538 0-39.384615 21.661538-39.384615 39.384615v669.538462z"  /></svg>